<mxfile host="app.diagrams.net" agent="Mozilla/5.0 (Windows NT 10.0; Win64; x64) AppleWebKit/537.36 (KHTML, like Gecko) Chrome/134.0.0.0 Safari/537.36" version="26.2.3">
  <diagram name="Page-1" id="ZLVN8tH2prSL9D6w5mu5">
    <mxGraphModel dx="1638" dy="1612" grid="1" gridSize="10" guides="1" tooltips="1" connect="1" arrows="1" fold="1" page="1" pageScale="1" pageWidth="850" pageHeight="1100" math="0" shadow="0">
      <root>
        <mxCell id="0" />
        <mxCell id="1" parent="0" />
        <mxCell id="_gORhHscxTq4bh38y0V_-45" value="" style="group" vertex="1" connectable="0" parent="1">
          <mxGeometry x="-60" y="-990" width="840" height="1095" as="geometry" />
        </mxCell>
        <mxCell id="_gORhHscxTq4bh38y0V_-1" value="" style="rounded=0;whiteSpace=wrap;html=1;" vertex="1" parent="_gORhHscxTq4bh38y0V_-45">
          <mxGeometry width="840" height="110" as="geometry" />
        </mxCell>
        <mxCell id="_gORhHscxTq4bh38y0V_-2" value="" style="verticalLabelPosition=bottom;shadow=0;dashed=0;align=center;html=1;verticalAlign=top;strokeWidth=1;shape=mxgraph.mockup.graphics.simpleIcon;strokeColor=#999999;" vertex="1" parent="_gORhHscxTq4bh38y0V_-45">
          <mxGeometry x="10.5" y="26" width="63" height="50" as="geometry" />
        </mxCell>
        <mxCell id="_gORhHscxTq4bh38y0V_-4" value="&lt;font style=&quot;font-size: 14px;&quot;&gt;&lt;b&gt;Home&lt;/b&gt;&lt;/font&gt;" style="text;html=1;align=center;verticalAlign=middle;whiteSpace=wrap;rounded=0;" vertex="1" parent="_gORhHscxTq4bh38y0V_-45">
          <mxGeometry x="280.35" y="44" width="63" height="30" as="geometry" />
        </mxCell>
        <mxCell id="_gORhHscxTq4bh38y0V_-5" value="&lt;font style=&quot;font-size: 14px;&quot;&gt;&lt;b&gt;About Us&lt;/b&gt;&lt;/font&gt;" style="text;html=1;align=center;verticalAlign=middle;whiteSpace=wrap;rounded=0;" vertex="1" parent="_gORhHscxTq4bh38y0V_-45">
          <mxGeometry x="375.90000000000003" y="43" width="77.7" height="30" as="geometry" />
        </mxCell>
        <mxCell id="_gORhHscxTq4bh38y0V_-6" value="&lt;font style=&quot;font-size: 14px;&quot;&gt;&lt;b&gt;shop&lt;/b&gt;&lt;/font&gt;" style="text;html=1;align=center;verticalAlign=middle;whiteSpace=wrap;rounded=0;" vertex="1" parent="_gORhHscxTq4bh38y0V_-45">
          <mxGeometry x="462" y="43" width="63" height="30" as="geometry" />
        </mxCell>
        <mxCell id="_gORhHscxTq4bh38y0V_-7" value="&lt;font style=&quot;font-size: 14px;&quot;&gt;&lt;b&gt;Contact Us&lt;/b&gt;&lt;/font&gt;" style="text;html=1;align=center;verticalAlign=middle;whiteSpace=wrap;rounded=0;" vertex="1" parent="_gORhHscxTq4bh38y0V_-45">
          <mxGeometry x="558.6" y="44" width="84" height="30" as="geometry" />
        </mxCell>
        <mxCell id="_gORhHscxTq4bh38y0V_-9" value="&lt;b&gt;&lt;font style=&quot;font-size: 14px;&quot;&gt;My Account&lt;/font&gt;&lt;/b&gt;" style="text;html=1;align=center;verticalAlign=middle;whiteSpace=wrap;rounded=0;" vertex="1" parent="_gORhHscxTq4bh38y0V_-45">
          <mxGeometry x="696.15" y="45" width="93.45" height="30" as="geometry" />
        </mxCell>
        <mxCell id="_gORhHscxTq4bh38y0V_-10" value="&lt;font style=&quot;font-size: 14px;&quot;&gt;&lt;b&gt;Logo&lt;/b&gt;&lt;/font&gt;" style="text;html=1;align=center;verticalAlign=middle;whiteSpace=wrap;rounded=0;" vertex="1" parent="_gORhHscxTq4bh38y0V_-45">
          <mxGeometry x="10.5" y="36" width="63" height="30" as="geometry" />
        </mxCell>
        <mxCell id="_gORhHscxTq4bh38y0V_-11" value="" style="verticalLabelPosition=bottom;shadow=0;dashed=0;align=center;html=1;verticalAlign=top;strokeWidth=1;shape=mxgraph.mockup.graphics.simpleIcon;strokeColor=#999999;" vertex="1" parent="_gORhHscxTq4bh38y0V_-45">
          <mxGeometry x="17.85" y="140" width="808.5" height="210" as="geometry" />
        </mxCell>
        <mxCell id="_gORhHscxTq4bh38y0V_-12" value="Ladybird designs" style="text;html=1;align=center;verticalAlign=middle;whiteSpace=wrap;rounded=0;" vertex="1" parent="_gORhHscxTq4bh38y0V_-45">
          <mxGeometry x="338.1" y="200" width="168" height="90" as="geometry" />
        </mxCell>
        <mxCell id="_gORhHscxTq4bh38y0V_-13" value="&lt;font style=&quot;font-size: 18px;&quot;&gt;&lt;b&gt;Styled by Ladybird&lt;/b&gt;&lt;/font&gt;" style="text;html=1;align=center;verticalAlign=middle;whiteSpace=wrap;rounded=0;" vertex="1" parent="_gORhHscxTq4bh38y0V_-45">
          <mxGeometry x="285.6" y="381" width="336" height="49" as="geometry" />
        </mxCell>
        <mxCell id="_gORhHscxTq4bh38y0V_-14" value="" style="verticalLabelPosition=bottom;shadow=0;dashed=0;align=center;html=1;verticalAlign=top;strokeWidth=1;shape=mxgraph.mockup.graphics.simpleIcon;strokeColor=#999999;" vertex="1" parent="_gORhHscxTq4bh38y0V_-45">
          <mxGeometry x="65.10000000000001" y="420" width="149.1" height="100" as="geometry" />
        </mxCell>
        <mxCell id="_gORhHscxTq4bh38y0V_-18" value="" style="verticalLabelPosition=bottom;shadow=0;dashed=0;align=center;html=1;verticalAlign=top;strokeWidth=1;shape=mxgraph.mockup.graphics.simpleIcon;strokeColor=#999999;" vertex="1" parent="_gORhHscxTq4bh38y0V_-45">
          <mxGeometry x="275.1" y="420" width="149.1" height="100" as="geometry" />
        </mxCell>
        <mxCell id="_gORhHscxTq4bh38y0V_-19" value="" style="verticalLabelPosition=bottom;shadow=0;dashed=0;align=center;html=1;verticalAlign=top;strokeWidth=1;shape=mxgraph.mockup.graphics.simpleIcon;strokeColor=#999999;" vertex="1" parent="_gORhHscxTq4bh38y0V_-45">
          <mxGeometry x="485.1" y="420" width="149.1" height="100" as="geometry" />
        </mxCell>
        <mxCell id="_gORhHscxTq4bh38y0V_-20" value="" style="verticalLabelPosition=bottom;shadow=0;dashed=0;align=center;html=1;verticalAlign=top;strokeWidth=1;shape=mxgraph.mockup.graphics.simpleIcon;strokeColor=#999999;" vertex="1" parent="_gORhHscxTq4bh38y0V_-45">
          <mxGeometry x="683.025" y="420" width="149.1" height="100" as="geometry" />
        </mxCell>
        <mxCell id="_gORhHscxTq4bh38y0V_-21" value="Igbo Bride" style="text;html=1;align=center;verticalAlign=middle;whiteSpace=wrap;rounded=0;" vertex="1" parent="_gORhHscxTq4bh38y0V_-45">
          <mxGeometry x="96.60000000000001" y="460" width="63" height="30" as="geometry" />
        </mxCell>
        <mxCell id="_gORhHscxTq4bh38y0V_-25" value="Igbo Groom" style="text;html=1;align=center;verticalAlign=middle;whiteSpace=wrap;rounded=0;" vertex="1" parent="_gORhHscxTq4bh38y0V_-45">
          <mxGeometry x="300.3" y="457" width="87.15" height="30" as="geometry" />
        </mxCell>
        <mxCell id="_gORhHscxTq4bh38y0V_-26" value="Akwa Ibom Bride" style="text;html=1;align=center;verticalAlign=middle;whiteSpace=wrap;rounded=0;" vertex="1" parent="_gORhHscxTq4bh38y0V_-45">
          <mxGeometry x="519.75" y="455" width="87.15" height="30" as="geometry" />
        </mxCell>
        <mxCell id="_gORhHscxTq4bh38y0V_-27" value="Edo Couple" style="text;html=1;align=center;verticalAlign=middle;whiteSpace=wrap;rounded=0;" vertex="1" parent="_gORhHscxTq4bh38y0V_-45">
          <mxGeometry x="720.3000000000001" y="458" width="87.15" height="30" as="geometry" />
        </mxCell>
        <mxCell id="_gORhHscxTq4bh38y0V_-28" value="&lt;font style=&quot;font-size: 18px;&quot;&gt;&lt;b&gt;Fabrics by Ladybird&lt;/b&gt;&lt;/font&gt;" style="text;html=1;align=center;verticalAlign=middle;whiteSpace=wrap;rounded=0;" vertex="1" parent="_gORhHscxTq4bh38y0V_-45">
          <mxGeometry x="247.8" y="563" width="336" height="49" as="geometry" />
        </mxCell>
        <mxCell id="_gORhHscxTq4bh38y0V_-29" value="" style="verticalLabelPosition=bottom;shadow=0;dashed=0;align=center;html=1;verticalAlign=top;strokeWidth=1;shape=mxgraph.mockup.graphics.simpleIcon;strokeColor=#999999;" vertex="1" parent="_gORhHscxTq4bh38y0V_-45">
          <mxGeometry x="75.60000000000001" y="620" width="149.1" height="100" as="geometry" />
        </mxCell>
        <mxCell id="_gORhHscxTq4bh38y0V_-30" value="VVIP Sets" style="text;html=1;align=center;verticalAlign=middle;whiteSpace=wrap;rounded=0;" vertex="1" parent="_gORhHscxTq4bh38y0V_-45">
          <mxGeometry x="108.15" y="720" width="63" height="30" as="geometry" />
        </mxCell>
        <mxCell id="_gORhHscxTq4bh38y0V_-31" value="" style="verticalLabelPosition=bottom;shadow=0;dashed=0;align=center;html=1;verticalAlign=top;strokeWidth=1;shape=mxgraph.mockup.graphics.simpleIcon;strokeColor=#999999;" vertex="1" parent="_gORhHscxTq4bh38y0V_-45">
          <mxGeometry x="282.45" y="621" width="149.1" height="100" as="geometry" />
        </mxCell>
        <mxCell id="_gORhHscxTq4bh38y0V_-32" value="VIP sets" style="text;html=1;align=center;verticalAlign=middle;whiteSpace=wrap;rounded=0;" vertex="1" parent="_gORhHscxTq4bh38y0V_-45">
          <mxGeometry x="315" y="721" width="63" height="30" as="geometry" />
        </mxCell>
        <mxCell id="_gORhHscxTq4bh38y0V_-33" value="" style="verticalLabelPosition=bottom;shadow=0;dashed=0;align=center;html=1;verticalAlign=top;strokeWidth=1;shape=mxgraph.mockup.graphics.simpleIcon;strokeColor=#999999;" vertex="1" parent="_gORhHscxTq4bh38y0V_-45">
          <mxGeometry x="479.85" y="623" width="149.1" height="100" as="geometry" />
        </mxCell>
        <mxCell id="_gORhHscxTq4bh38y0V_-34" value="Luxury&amp;nbsp; Sets" style="text;html=1;align=center;verticalAlign=middle;whiteSpace=wrap;rounded=0;" vertex="1" parent="_gORhHscxTq4bh38y0V_-45">
          <mxGeometry x="512.4" y="723" width="77.7" height="30" as="geometry" />
        </mxCell>
        <mxCell id="_gORhHscxTq4bh38y0V_-35" value="" style="verticalLabelPosition=bottom;shadow=0;dashed=0;align=center;html=1;verticalAlign=top;strokeWidth=1;shape=mxgraph.mockup.graphics.simpleIcon;strokeColor=#999999;" vertex="1" parent="_gORhHscxTq4bh38y0V_-45">
          <mxGeometry x="674.1" y="622" width="149.1" height="100" as="geometry" />
        </mxCell>
        <mxCell id="_gORhHscxTq4bh38y0V_-36" value="Midi" style="text;html=1;align=center;verticalAlign=middle;whiteSpace=wrap;rounded=0;" vertex="1" parent="_gORhHscxTq4bh38y0V_-45">
          <mxGeometry x="706.65" y="722" width="63" height="30" as="geometry" />
        </mxCell>
        <mxCell id="_gORhHscxTq4bh38y0V_-37" value="" style="rounded=0;whiteSpace=wrap;html=1;" vertex="1" parent="_gORhHscxTq4bh38y0V_-45">
          <mxGeometry x="2.1" y="980" width="829.5" height="115" as="geometry" />
        </mxCell>
        <mxCell id="_gORhHscxTq4bh38y0V_-38" value="" style="verticalLabelPosition=bottom;shadow=0;dashed=0;align=center;html=1;verticalAlign=top;strokeWidth=1;shape=mxgraph.mockup.graphics.simpleIcon;strokeColor=#999999;" vertex="1" parent="_gORhHscxTq4bh38y0V_-45">
          <mxGeometry x="629.475" y="1025" width="43.575" height="30" as="geometry" />
        </mxCell>
        <mxCell id="_gORhHscxTq4bh38y0V_-39" value="" style="verticalLabelPosition=bottom;shadow=0;dashed=0;align=center;html=1;verticalAlign=top;strokeWidth=1;shape=mxgraph.mockup.graphics.simpleIcon;strokeColor=#999999;" vertex="1" parent="_gORhHscxTq4bh38y0V_-45">
          <mxGeometry x="695.625" y="1023" width="43.575" height="30" as="geometry" />
        </mxCell>
        <mxCell id="_gORhHscxTq4bh38y0V_-40" value="" style="verticalLabelPosition=bottom;shadow=0;dashed=0;align=center;html=1;verticalAlign=top;strokeWidth=1;shape=mxgraph.mockup.graphics.simpleIcon;strokeColor=#999999;" vertex="1" parent="_gORhHscxTq4bh38y0V_-45">
          <mxGeometry x="758.625" y="1022" width="43.575" height="30" as="geometry" />
        </mxCell>
        <mxCell id="_gORhHscxTq4bh38y0V_-41" value="Facebook" style="text;html=1;align=center;verticalAlign=middle;whiteSpace=wrap;rounded=0;" vertex="1" parent="_gORhHscxTq4bh38y0V_-45">
          <mxGeometry x="619.7625" y="1055" width="63" height="30" as="geometry" />
        </mxCell>
        <mxCell id="_gORhHscxTq4bh38y0V_-42" value="Twitter" style="text;html=1;align=center;verticalAlign=middle;whiteSpace=wrap;rounded=0;" vertex="1" parent="_gORhHscxTq4bh38y0V_-45">
          <mxGeometry x="689.0625" y="1055" width="63" height="30" as="geometry" />
        </mxCell>
        <mxCell id="_gORhHscxTq4bh38y0V_-43" value="Instagram" style="text;html=1;align=center;verticalAlign=middle;whiteSpace=wrap;rounded=0;" vertex="1" parent="_gORhHscxTq4bh38y0V_-45">
          <mxGeometry x="747.8625000000001" y="1053" width="63" height="30" as="geometry" />
        </mxCell>
        <mxCell id="_gORhHscxTq4bh38y0V_-44" value="Copyright&amp;nbsp;" style="text;html=1;align=center;verticalAlign=middle;whiteSpace=wrap;rounded=0;" vertex="1" parent="_gORhHscxTq4bh38y0V_-45">
          <mxGeometry x="178.5" y="1023" width="222.60000000000002" height="30" as="geometry" />
        </mxCell>
      </root>
    </mxGraphModel>
  </diagram>
</mxfile>
